<svg width="224" height="113" viewBox="0 0 224 113" fill="none" xmlns="http://www.w3.org/2000/svg">
<g filter="url(#filter0_i_1_3592)">
<g filter="url(#filter1_d_1_3592)">
<path d="M185.873 99.7659C184.689 99.7659 183.732 99.5221 183.004 99.0346C182.366 98.547 181.546 97.8643 180.544 96.9867C178.813 95.0363 177.401 92.9397 176.308 90.6968C175.306 88.4539 174.942 86.5035 175.215 84.8457C175.488 84.0656 175.579 83.3342 175.488 82.6516C175.488 81.8714 175.488 81.4814 175.488 81.4814C175.033 80.9938 174.896 80.7012 175.078 80.6037C175.26 80.4087 175.443 80.1161 175.625 79.726C176.171 79.726 176.354 79.1897 176.171 78.117C175.989 77.3369 176.262 75.6791 176.991 73.1436C177.811 70.5106 178.904 68.0239 180.271 65.6835C180.817 64.7083 181.637 63.4406 182.73 61.8803C183.823 60.2225 185.008 58.6134 186.283 57.0532C187.649 55.3954 188.879 54.0789 189.972 53.1037C192.25 51.0558 194.345 49.398 196.258 48.1303C198.262 46.8626 200.266 45.9849 202.27 45.4973C204.275 45.0097 206.324 44.7659 208.419 44.7659C210.606 44.7659 212.382 45.5461 213.749 47.1064C215.844 48.0815 217.301 49.398 218.121 51.0558C219.032 52.7136 219.624 54.859 219.898 57.492C220.171 60.4175 219.898 64.0257 219.078 68.3165C218.258 72.5097 216.026 77.3856 212.382 82.9441C210.105 86.4548 207.873 89.1853 205.687 91.1356C203.5 93.086 201.086 94.8901 198.444 96.5479C196.531 97.9131 194.482 98.742 192.295 99.0346C190.109 99.3271 187.968 99.5709 185.873 99.7659ZM199.811 81.9202C201.815 80.0673 203.227 78.0195 204.047 75.7766C204.958 73.5337 205.914 70.9007 206.916 67.8776C207.281 67.2925 207.509 66.3174 207.6 64.9521C207.782 63.5869 207.827 62.2704 207.736 61.0026C207.645 59.6374 207.326 58.8572 206.78 58.6622C205.96 57.9796 205.14 57.8333 204.32 58.2234C203.5 58.5159 202.453 59.1498 201.177 60.125C198.444 62.5629 195.894 65.3909 193.525 68.609C191.248 71.7296 189.654 75.5815 188.743 80.1649C188.469 82.6028 188.697 84.4557 189.426 85.7234C190.246 86.8936 191.521 87.2349 193.252 86.7473C195.074 86.1622 197.26 84.5532 199.811 81.9202Z" fill="url(#paint0_linear_1_3592)"/>
<path d="M185.873 99.7659C184.689 99.7659 183.732 99.5221 183.004 99.0346C182.366 98.547 181.546 97.8643 180.544 96.9867C178.813 95.0363 177.401 92.9397 176.308 90.6968C175.306 88.4539 174.942 86.5035 175.215 84.8457C175.488 84.0656 175.579 83.3342 175.488 82.6516C175.488 81.8714 175.488 81.4814 175.488 81.4814C175.033 80.9938 174.896 80.7012 175.078 80.6037C175.26 80.4087 175.443 80.1161 175.625 79.726C176.171 79.726 176.354 79.1897 176.171 78.117C175.989 77.3369 176.262 75.6791 176.991 73.1436C177.811 70.5106 178.904 68.0239 180.271 65.6835C180.817 64.7083 181.637 63.4406 182.73 61.8803C183.823 60.2225 185.008 58.6134 186.283 57.0532C187.649 55.3954 188.879 54.0789 189.972 53.1037C192.25 51.0558 194.345 49.398 196.258 48.1303C198.262 46.8626 200.266 45.9849 202.27 45.4973C204.275 45.0097 206.324 44.7659 208.419 44.7659C210.606 44.7659 212.382 45.5461 213.749 47.1064C215.844 48.0815 217.301 49.398 218.121 51.0558C219.032 52.7136 219.624 54.859 219.898 57.492C220.171 60.4175 219.898 64.0257 219.078 68.3165C218.258 72.5097 216.026 77.3856 212.382 82.9441C210.105 86.4548 207.873 89.1853 205.687 91.1356C203.5 93.086 201.086 94.8901 198.444 96.5479C196.531 97.9131 194.482 98.742 192.295 99.0346C190.109 99.3271 187.968 99.5709 185.873 99.7659ZM199.811 81.9202C201.815 80.0673 203.227 78.0195 204.047 75.7766C204.958 73.5337 205.914 70.9007 206.916 67.8776C207.281 67.2925 207.509 66.3174 207.6 64.9521C207.782 63.5869 207.827 62.2704 207.736 61.0026C207.645 59.6374 207.326 58.8572 206.78 58.6622C205.96 57.9796 205.14 57.8333 204.32 58.2234C203.5 58.5159 202.453 59.1498 201.177 60.125C198.444 62.5629 195.894 65.3909 193.525 68.609C191.248 71.7296 189.654 75.5815 188.743 80.1649C188.469 82.6028 188.697 84.4557 189.426 85.7234C190.246 86.8936 191.521 87.2349 193.252 86.7473C195.074 86.1622 197.26 84.5532 199.811 81.9202Z" fill="url(#paint1_linear_1_3592)"/>
</g>
<g filter="url(#filter2_d_1_3592)">
<path d="M159.93 85.1064C158.061 86.6161 156.083 87.4833 153.999 87.7078C151.98 87.8282 150.086 87.1619 148.319 85.7089C146.615 84.1517 145.346 81.6017 144.51 78.059C144.291 77.1311 144.075 76.0246 143.861 74.7395C143.711 73.3501 143.635 71.8986 143.635 70.385C143.614 68.7871 143.677 67.1693 143.825 65.5315C143.899 64.7127 144.057 63.8739 144.3 63.0153C144.627 62.1367 144.622 61.7372 144.284 61.8168C143.947 61.8964 143.575 62.2068 143.168 62.748C142.846 63.2692 142.588 63.6862 142.395 63.999C140.724 66.3522 139.242 68.75 137.948 71.1924C136.719 73.5305 135.658 75.8288 134.766 78.0873C133.939 80.2415 133.335 82.2095 132.954 83.9913C132.657 85.7532 132.638 87.1824 132.897 88.2789C133.195 89.5442 132.771 90.5791 131.626 91.3838C130.48 92.1884 129.373 92.4049 128.306 92.0334C126.484 91.4836 124.67 90.398 122.863 88.7763C121.14 87.1348 120.037 84.7236 119.553 81.543C118.871 77.5188 118.372 73.8964 118.058 70.6759C117.743 67.4555 117.622 63.9222 117.694 60.0762C117.831 56.126 118.073 51.3047 118.422 45.6125C118.822 42.4015 119.178 39.3791 119.489 36.5453C119.78 33.6272 120.044 31.1607 120.281 29.1458C120.602 27.1109 120.797 25.8627 120.867 25.4012C121.189 24.8799 121.498 23.7383 121.795 21.9765C122.072 20.1302 122.264 18.3039 122.372 16.4975C122.565 14.6712 122.621 13.5893 122.541 13.2519C122.382 12.5771 122.369 11.9568 122.503 11.391C122.721 10.8053 122.907 10.2717 123.06 9.79023C123.288 8.48991 123.521 7.58908 123.758 7.08772C124.061 6.48211 124.381 6.1395 124.718 6.0599C125.14 5.96039 125.864 6.01205 126.892 6.21489C128.003 6.39783 129.061 6.7272 130.063 7.20299C131.131 7.57453 131.828 8.07781 132.156 8.71281C133.025 9.75441 133.651 10.8979 134.034 12.1433C134.397 13.3043 134.45 14.8501 134.193 16.7806C133.936 18.7112 133.332 21.436 132.382 24.955C131.649 27.8883 131.063 30.8761 130.623 33.9184C130.183 36.9607 129.815 40.1195 129.52 43.395C129.396 44.7597 129.246 46.5761 129.069 48.8441C128.872 51.0277 128.694 53.2957 128.537 55.648C128.444 57.8961 128.386 59.9134 128.362 61.6999C128.338 63.4865 128.386 64.6328 128.506 65.1389C128.645 65.7293 129.052 65.945 129.727 65.7857C130.382 65.5422 130.937 64.8769 131.393 63.7898C131.571 63.0354 131.97 62.2734 132.59 61.5038C133.19 60.6499 133.706 59.8159 134.137 59.0018C134.613 57.9991 135.185 56.84 135.854 55.5245C136.588 54.1048 137.383 52.7594 138.241 51.4885C139.163 50.1133 140.009 48.9789 140.777 48.0852C141.63 47.1716 142.394 46.6351 143.069 46.4759C144.672 46.0978 146.131 46.2433 147.446 46.9125C148.762 47.5816 150.028 48.7966 151.245 50.5576C151.558 50.7509 151.89 51.0286 152.243 51.3907C152.576 51.6684 152.804 51.8816 152.928 52.0304C153.429 52.2683 153.959 53.5682 154.516 55.93C155.053 58.2075 155.125 61.5299 154.731 65.8971C154.708 69.1972 154.791 71.6263 154.981 73.1844C155.254 74.7226 155.729 75.4121 156.404 75.2529C156.404 75.2529 156.766 74.9004 157.49 74.1953C158.298 73.4702 159.139 72.6931 160.012 71.8638C162.08 69.684 163.732 68.76 164.968 69.0917C166.204 69.4235 166.931 70.0533 167.15 70.9811C167.329 71.7403 167.243 72.6956 166.891 73.8471C166.624 74.9788 166.53 75.7133 166.609 76.0507C166.609 76.0507 166.619 76.0928 166.639 76.1772C166.639 76.1772 166.679 76.3459 166.759 76.6833C166.799 76.852 166.39 77.5718 165.532 78.8427C164.674 80.1137 163.69 81.4144 162.579 82.7451C161.533 83.9714 160.65 84.7585 159.93 85.1064Z" fill="url(#paint2_linear_1_3592)"/>
<path d="M159.93 85.1064C158.061 86.6161 156.083 87.4833 153.999 87.7078C151.98 87.8282 150.086 87.1619 148.319 85.7089C146.615 84.1517 145.346 81.6017 144.51 78.059C144.291 77.1311 144.075 76.0246 143.861 74.7395C143.711 73.3501 143.635 71.8986 143.635 70.385C143.614 68.7871 143.677 67.1693 143.825 65.5315C143.899 64.7127 144.057 63.8739 144.3 63.0153C144.627 62.1367 144.622 61.7372 144.284 61.8168C143.947 61.8964 143.575 62.2068 143.168 62.748C142.846 63.2692 142.588 63.6862 142.395 63.999C140.724 66.3522 139.242 68.75 137.948 71.1924C136.719 73.5305 135.658 75.8288 134.766 78.0873C133.939 80.2415 133.335 82.2095 132.954 83.9913C132.657 85.7532 132.638 87.1824 132.897 88.2789C133.195 89.5442 132.771 90.5791 131.626 91.3838C130.48 92.1884 129.373 92.4049 128.306 92.0334C126.484 91.4836 124.67 90.398 122.863 88.7763C121.14 87.1348 120.037 84.7236 119.553 81.543C118.871 77.5188 118.372 73.8964 118.058 70.6759C117.743 67.4555 117.622 63.9222 117.694 60.0762C117.831 56.126 118.073 51.3047 118.422 45.6125C118.822 42.4015 119.178 39.3791 119.489 36.5453C119.78 33.6272 120.044 31.1607 120.281 29.1458C120.602 27.1109 120.797 25.8627 120.867 25.4012C121.189 24.8799 121.498 23.7383 121.795 21.9765C122.072 20.1302 122.264 18.3039 122.372 16.4975C122.565 14.6712 122.621 13.5893 122.541 13.2519C122.382 12.5771 122.369 11.9568 122.503 11.391C122.721 10.8053 122.907 10.2717 123.06 9.79023C123.288 8.48991 123.521 7.58908 123.758 7.08772C124.061 6.48211 124.381 6.1395 124.718 6.0599C125.14 5.96039 125.864 6.01205 126.892 6.21489C128.003 6.39783 129.061 6.7272 130.063 7.20299C131.131 7.57453 131.828 8.07781 132.156 8.71281C133.025 9.75441 133.651 10.8979 134.034 12.1433C134.397 13.3043 134.45 14.8501 134.193 16.7806C133.936 18.7112 133.332 21.436 132.382 24.955C131.649 27.8883 131.063 30.8761 130.623 33.9184C130.183 36.9607 129.815 40.1195 129.52 43.395C129.396 44.7597 129.246 46.5761 129.069 48.8441C128.872 51.0277 128.694 53.2957 128.537 55.648C128.444 57.8961 128.386 59.9134 128.362 61.6999C128.338 63.4865 128.386 64.6328 128.506 65.1389C128.645 65.7293 129.052 65.945 129.727 65.7857C130.382 65.5422 130.937 64.8769 131.393 63.7898C131.571 63.0354 131.97 62.2734 132.59 61.5038C133.19 60.6499 133.706 59.8159 134.137 59.0018C134.613 57.9991 135.185 56.84 135.854 55.5245C136.588 54.1048 137.383 52.7594 138.241 51.4885C139.163 50.1133 140.009 48.9789 140.777 48.0852C141.63 47.1716 142.394 46.6351 143.069 46.4759C144.672 46.0978 146.131 46.2433 147.446 46.9125C148.762 47.5816 150.028 48.7966 151.245 50.5576C151.558 50.7509 151.89 51.0286 152.243 51.3907C152.576 51.6684 152.804 51.8816 152.928 52.0304C153.429 52.2683 153.959 53.5682 154.516 55.93C155.053 58.2075 155.125 61.5299 154.731 65.8971C154.708 69.1972 154.791 71.6263 154.981 73.1844C155.254 74.7226 155.729 75.4121 156.404 75.2529C156.404 75.2529 156.766 74.9004 157.49 74.1953C158.298 73.4702 159.139 72.6931 160.012 71.8638C162.08 69.684 163.732 68.76 164.968 69.0917C166.204 69.4235 166.931 70.0533 167.15 70.9811C167.329 71.7403 167.243 72.6956 166.891 73.8471C166.624 74.9788 166.53 75.7133 166.609 76.0507C166.609 76.0507 166.619 76.0928 166.639 76.1772C166.639 76.1772 166.679 76.3459 166.759 76.6833C166.799 76.852 166.39 77.5718 165.532 78.8427C164.674 80.1137 163.69 81.4144 162.579 82.7451C161.533 83.9714 160.65 84.7585 159.93 85.1064Z" fill="url(#paint3_linear_1_3592)"/>
</g>
<g filter="url(#filter3_d_1_3592)">
<path d="M90.0118 97.3694C87.5997 98.1978 85.084 98.3846 82.4646 97.9296C79.9308 97.4609 77.6991 96.4166 75.7696 94.7968C73.9118 93.0776 72.7618 90.8491 72.3198 88.1112C71.6486 85.5859 71.3721 82.5141 71.4901 78.8957C71.6799 75.1779 72.2119 71.4048 73.0862 67.5765C74.046 63.7344 75.3095 60.4138 76.8767 57.6149C78.2563 55.2852 79.6635 53.1266 81.0984 51.1391C82.5332 49.1516 83.8868 47.7479 85.159 46.9279C86.2739 46.2212 87.6663 45.6013 89.336 45.0683C91.0775 44.436 92.2904 44.0645 92.9749 43.954C94.3991 44.0752 95.9862 44.3896 97.7361 44.8971C99.5716 45.3908 100.572 46.151 100.738 47.1777C100.738 47.1777 100.844 47.2923 101.057 47.5213C101.341 47.651 101.483 47.7158 101.483 47.7158C101.997 47.6329 102.656 48.1848 103.463 49.3715C104.34 50.4588 105.082 51.7876 105.686 53.3579C106.277 54.8427 106.392 56.0971 106.031 57.1212C105.951 58.802 105.522 60.4954 104.744 62.2012C104.052 63.8933 103.363 64.7945 102.679 64.905C102.336 64.9603 102.001 65.0583 101.673 65.1992C101.416 65.2406 101.322 65.4752 101.391 65.903C101.46 66.3308 101.024 66.6207 100.083 66.7727C99.2277 66.9108 98.3017 66.8848 97.3053 66.6945C96.3089 66.5042 95.6271 66.0876 95.2599 65.4446C95.1908 65.0168 95.1865 64.4468 95.2471 63.7347C95.3077 63.0226 95.3779 61.8262 95.4576 60.1453C95.5842 57.6668 95.3714 56.077 94.8192 55.3761C94.2533 54.5896 93.17 54.6767 91.5693 55.6375C89.6238 57.1807 88.0978 58.8756 86.9914 60.7222C85.8711 62.4833 84.9828 64.8654 84.3264 67.8684C83.7556 70.8576 83.2361 74.9798 82.7678 80.235C82.5722 82.2858 82.7354 83.8396 83.2572 84.8966C83.8646 85.9398 84.3035 86.4835 84.574 86.5276C85.8271 86.6764 87.1243 86.5547 88.4656 86.1626C89.8786 85.671 91.0143 85.0926 91.8725 84.4273C93.1309 83.5218 94.2113 82.6011 95.1137 81.6653C96.0878 80.6301 97.1406 79.5383 98.272 78.39C98.6583 78.0642 98.9673 77.5315 99.1991 76.7917C99.4169 75.9664 99.8405 75.3274 100.47 74.8747C100.988 73.7374 101.761 73.0859 102.788 72.9202C103.886 72.655 104.949 72.4395 105.976 72.2737C106.688 72.3343 107.484 72.6447 108.364 73.2048C109.245 73.765 109.912 74.3596 110.364 74.9888C110.889 75.5187 110.915 75.9534 110.443 76.2929C110.101 76.3482 109.908 76.5111 109.864 76.7816C109.891 76.9527 109.905 77.0382 109.905 77.0382C110.132 77.3528 109.871 78.185 109.123 79.5348C108.461 80.8708 107.556 82.3338 106.408 83.9237C105.26 85.5137 104.128 86.9257 103.01 88.1596C101.964 89.2942 101.184 89.9029 100.671 89.9858C99.8155 90.1239 99.4292 90.4497 99.5121 90.963C99.5397 91.1342 98.9671 91.6656 97.7942 92.5573C96.7069 93.4352 95.4057 94.3476 93.8907 95.2945C92.4611 96.2277 91.1682 96.9193 90.0118 97.3694Z" fill="url(#paint4_linear_1_3592)"/>
<path d="M90.0118 97.3694C87.5997 98.1978 85.084 98.3846 82.4646 97.9296C79.9308 97.4609 77.6991 96.4166 75.7696 94.7968C73.9118 93.0776 72.7618 90.8491 72.3198 88.1112C71.6486 85.5859 71.3721 82.5141 71.4901 78.8957C71.6799 75.1779 72.2119 71.4048 73.0862 67.5765C74.046 63.7344 75.3095 60.4138 76.8767 57.6149C78.2563 55.2852 79.6635 53.1266 81.0984 51.1391C82.5332 49.1516 83.8868 47.7479 85.159 46.9279C86.2739 46.2212 87.6663 45.6013 89.336 45.0683C91.0775 44.436 92.2904 44.0645 92.9749 43.954C94.3991 44.0752 95.9862 44.3896 97.7361 44.8971C99.5716 45.3908 100.572 46.151 100.738 47.1777C100.738 47.1777 100.844 47.2923 101.057 47.5213C101.341 47.651 101.483 47.7158 101.483 47.7158C101.997 47.6329 102.656 48.1848 103.463 49.3715C104.34 50.4588 105.082 51.7876 105.686 53.3579C106.277 54.8427 106.392 56.0971 106.031 57.1212C105.951 58.802 105.522 60.4954 104.744 62.2012C104.052 63.8933 103.363 64.7945 102.679 64.905C102.336 64.9603 102.001 65.0583 101.673 65.1992C101.416 65.2406 101.322 65.4752 101.391 65.903C101.46 66.3308 101.024 66.6207 100.083 66.7727C99.2277 66.9108 98.3017 66.8848 97.3053 66.6945C96.3089 66.5042 95.6271 66.0876 95.2599 65.4446C95.1908 65.0168 95.1865 64.4468 95.2471 63.7347C95.3077 63.0226 95.3779 61.8262 95.4576 60.1453C95.5842 57.6668 95.3714 56.077 94.8192 55.3761C94.2533 54.5896 93.17 54.6767 91.5693 55.6375C89.6238 57.1807 88.0978 58.8756 86.9914 60.7222C85.8711 62.4833 84.9828 64.8654 84.3264 67.8684C83.7556 70.8576 83.2361 74.9798 82.7678 80.235C82.5722 82.2858 82.7354 83.8396 83.2572 84.8966C83.8646 85.9398 84.3035 86.4835 84.574 86.5276C85.8271 86.6764 87.1243 86.5547 88.4656 86.1626C89.8786 85.671 91.0143 85.0926 91.8725 84.4273C93.1309 83.5218 94.2113 82.6011 95.1137 81.6653C96.0878 80.6301 97.1406 79.5383 98.272 78.39C98.6583 78.0642 98.9673 77.5315 99.1991 76.7917C99.4169 75.9664 99.8405 75.3274 100.47 74.8747C100.988 73.7374 101.761 73.0859 102.788 72.9202C103.886 72.655 104.949 72.4395 105.976 72.2737C106.688 72.3343 107.484 72.6447 108.364 73.2048C109.245 73.765 109.912 74.3596 110.364 74.9888C110.889 75.5187 110.915 75.9534 110.443 76.2929C110.101 76.3482 109.908 76.5111 109.864 76.7816C109.891 76.9527 109.905 77.0382 109.905 77.0382C110.132 77.3528 109.871 78.185 109.123 79.5348C108.461 80.8708 107.556 82.3338 106.408 83.9237C105.26 85.5137 104.128 86.9257 103.01 88.1596C101.964 89.2942 101.184 89.9029 100.671 89.9858C99.8155 90.1239 99.4292 90.4497 99.5121 90.963C99.5397 91.1342 98.9671 91.6656 97.7942 92.5573C96.7069 93.4352 95.4057 94.3476 93.8907 95.2945C92.4611 96.2277 91.1682 96.9193 90.0118 97.3694Z" fill="url(#paint5_linear_1_3592)"/>
</g>
<g filter="url(#filter4_d_1_3592)">
<path d="M22.919 104.535C20.2704 104.052 17.7168 102.752 15.2583 100.634C12.7898 98.6019 10.5265 96.681 8.4684 94.8712C7.17508 93.2376 6.23613 91.5579 5.65152 89.8322C5.07692 88.0203 4.69151 85.707 4.49528 82.8922C4.34111 81.2165 4.59134 79.0643 5.24597 76.4357C5.9006 73.807 6.77045 71.2034 7.85552 68.6248C8.95059 65.9601 9.93256 63.893 10.8014 62.4235C12.1147 60.1332 13.7063 57.7007 15.5762 55.1261C17.5421 52.4754 19.445 49.9919 21.2848 47.6756C23.2207 45.2832 24.7523 43.3672 25.8794 41.9277C26.5521 41.3952 26.8453 41.1239 26.7593 41.1139C26.7693 41.0278 26.7743 40.9848 26.7743 40.9848C26.8243 40.5544 27.3799 39.5283 28.4409 37.9067C29.5981 36.209 30.6011 34.7114 31.4499 33.4141C32.9014 32.1869 33.7632 31.1528 34.0355 30.312C34.3077 29.4711 34.2587 28.7674 33.8883 28.2008C33.7562 27.8365 34.1856 27.1448 35.1766 26.1257C36.2537 25.1167 37.6901 24.0186 39.4859 22.8314C41.2917 21.5581 43.2496 20.477 45.3598 19.5881C47.616 18.1926 49.6961 17.562 51.6 17.6961C53.6 17.7541 54.7172 18.2766 54.9514 19.2636C54.9214 19.5219 55.3849 19.663 56.3418 19.687C57.3949 19.635 58.5821 19.5549 59.9034 19.4468C61.3208 19.2626 62.5561 19.1444 63.6091 19.0924C64.0996 18.6259 65.1346 18.3536 66.7142 18.2755C68.3899 18.1213 70.3189 18.0402 72.5011 18.0322C73.6102 18.2484 74.8534 18.4366 76.2308 18.5967C77.6182 18.6708 78.8334 18.7249 79.8765 18.7589C81.0056 18.8029 81.5702 18.8249 81.5702 18.8249C82.1928 18.7228 83.0087 19.2103 84.0177 20.2874C85.1228 21.2884 85.9296 22.6037 86.4382 24.2333C86.8606 25.8529 86.1889 27.1272 84.4232 28.0562C82.6574 28.9851 79.9847 29.4596 76.4051 29.4797C73.7825 29.5238 71.7244 29.5899 70.2309 29.678C68.8335 29.69 67.2969 29.7731 65.6213 29.9273C64.0417 30.0054 61.7053 30.2136 58.6122 30.552C56.41 30.7322 54.5621 30.8663 53.0686 30.9544C51.5751 31.0425 50.2238 31.4089 49.0146 32.0536C47.8914 32.7082 46.5691 33.9505 45.0476 35.7804C44.395 36.1407 43.4901 37.1698 42.3329 38.8675C41.1758 40.5652 40.0186 42.2629 38.8615 43.9607C36.0607 47.0378 33.9626 49.3241 32.5672 50.8196C31.2679 52.2391 30.7654 53.184 31.0597 53.6545C31.0597 53.6545 31.6473 53.8537 32.8225 54.2521C33.9977 54.6505 34.7575 54.8697 35.1018 54.9097C36.0127 54.5794 37.0808 54.3982 38.306 54.3661C39.6173 54.3441 40.6704 54.292 41.4652 54.2099C46.9627 53.4531 50.9948 52.9186 53.5614 52.6062C56.224 52.2178 58.0869 51.9545 59.15 51.8164C60.2991 51.6882 61.3091 51.6312 62.18 51.6452C63.4953 50.8383 64.6905 51.0645 65.7656 52.3238C66.9368 53.507 67.6956 54.8603 68.042 56.3839C68.4444 58.1757 68.2893 59.51 67.5765 60.3869C66.8638 61.2638 65.4394 61.8834 63.3033 62.2458C61.2532 62.6182 58.3273 63.0196 54.5254 63.4501C50.7336 63.7945 45.9498 64.4162 40.174 65.3151C35.2791 66.142 31.3531 66.5144 28.3962 66.4324C25.4392 66.3503 24.1469 65.4584 24.5192 63.7567C23.9567 63.3423 23.2279 63.6066 22.333 64.5496C21.5343 65.4164 20.7335 66.6757 19.9307 68.3274C19.1279 69.979 18.3531 71.7649 17.6064 73.6848C16.9457 75.6147 16.4723 77.4356 16.186 79.1473C15.8997 80.859 15.8737 82.2084 16.108 83.1954C16.5665 85.2554 17.4424 87.1023 18.7357 88.7359C20.1251 90.2935 22.2332 91.6728 25.0601 92.874C26.7718 93.1603 28.4355 93.4846 30.0511 93.847C31.6667 94.2093 33.5576 94.0801 35.7238 93.4595C40.903 93.1892 44.5377 92.6956 46.6278 91.9789C48.7179 91.2622 49.9982 90.7566 50.4686 90.4623C51.1974 90.1981 51.6678 89.9038 51.88 89.5794C52.1783 89.2651 52.5427 89.133 52.9731 89.183C52.6648 89.5834 52.7509 89.5934 53.2314 89.2131C53.7119 88.8327 54.4706 88.3101 55.5077 87.6455C57.4957 86.3061 59.4136 85.5693 61.2614 85.4352C63.1093 85.301 64.6158 85.4762 65.781 85.9607C66.9562 86.359 67.5618 86.7785 67.5978 87.2189C68.0143 88.1398 67.5959 89.4872 66.3426 91.261C65.0994 92.9487 63.2816 94.7005 60.8892 96.5163C58.5829 98.3422 55.9142 99.9078 52.8832 101.213C48.0403 103.093 42.8952 104.196 37.4477 104.523C31.9902 104.935 27.1473 104.939 22.919 104.535Z" fill="url(#paint6_linear_1_3592)"/>
<path d="M22.919 104.535C20.2704 104.052 17.7168 102.752 15.2583 100.634C12.7898 98.6019 10.5265 96.681 8.4684 94.8712C7.17508 93.2376 6.23613 91.5579 5.65152 89.8322C5.07692 88.0203 4.69151 85.707 4.49528 82.8922C4.34111 81.2165 4.59134 79.0643 5.24597 76.4357C5.9006 73.807 6.77045 71.2034 7.85552 68.6248C8.95059 65.9601 9.93256 63.893 10.8014 62.4235C12.1147 60.1332 13.7063 57.7007 15.5762 55.1261C17.5421 52.4754 19.445 49.9919 21.2848 47.6756C23.2207 45.2832 24.7523 43.3672 25.8794 41.9277C26.5521 41.3952 26.8453 41.1239 26.7593 41.1139C26.7693 41.0278 26.7743 40.9848 26.7743 40.9848C26.8243 40.5544 27.3799 39.5283 28.4409 37.9067C29.5981 36.209 30.6011 34.7114 31.4499 33.4141C32.9014 32.1869 33.7632 31.1528 34.0355 30.312C34.3077 29.4711 34.2587 28.7674 33.8883 28.2008C33.7562 27.8365 34.1856 27.1448 35.1766 26.1257C36.2537 25.1167 37.6901 24.0186 39.4859 22.8314C41.2917 21.5581 43.2496 20.477 45.3598 19.5881C47.616 18.1926 49.6961 17.562 51.6 17.6961C53.6 17.7541 54.7172 18.2766 54.9514 19.2636C54.9214 19.5219 55.3849 19.663 56.3418 19.687C57.3949 19.635 58.5821 19.5549 59.9034 19.4468C61.3208 19.2626 62.5561 19.1444 63.6091 19.0924C64.0996 18.6259 65.1346 18.3536 66.7142 18.2755C68.3899 18.1213 70.3189 18.0402 72.5011 18.0322C73.6102 18.2484 74.8534 18.4366 76.2308 18.5967C77.6182 18.6708 78.8334 18.7249 79.8765 18.7589C81.0056 18.8029 81.5702 18.8249 81.5702 18.8249C82.1928 18.7228 83.0087 19.2103 84.0177 20.2874C85.1228 21.2884 85.9296 22.6037 86.4382 24.2333C86.8606 25.8529 86.1889 27.1272 84.4232 28.0562C82.6574 28.9851 79.9847 29.4596 76.4051 29.4797C73.7825 29.5238 71.7244 29.5899 70.2309 29.678C68.8335 29.69 67.2969 29.7731 65.6213 29.9273C64.0417 30.0054 61.7053 30.2136 58.6122 30.552C56.41 30.7322 54.5621 30.8663 53.0686 30.9544C51.5751 31.0425 50.2238 31.4089 49.0146 32.0536C47.8914 32.7082 46.5691 33.9505 45.0476 35.7804C44.395 36.1407 43.4901 37.1698 42.3329 38.8675C41.1758 40.5652 40.0186 42.2629 38.8615 43.9607C36.0607 47.0378 33.9626 49.3241 32.5672 50.8196C31.2679 52.2391 30.7654 53.184 31.0597 53.6545C31.0597 53.6545 31.6473 53.8537 32.8225 54.2521C33.9977 54.6505 34.7575 54.8697 35.1018 54.9097C36.0127 54.5794 37.0808 54.3982 38.306 54.3661C39.6173 54.3441 40.6704 54.292 41.4652 54.2099C46.9627 53.4531 50.9948 52.9186 53.5614 52.6062C56.224 52.2178 58.0869 51.9545 59.15 51.8164C60.2991 51.6882 61.3091 51.6312 62.18 51.6452C63.4953 50.8383 64.6905 51.0645 65.7656 52.3238C66.9368 53.507 67.6956 54.8603 68.042 56.3839C68.4444 58.1757 68.2893 59.51 67.5765 60.3869C66.8638 61.2638 65.4394 61.8834 63.3033 62.2458C61.2532 62.6182 58.3273 63.0196 54.5254 63.4501C50.7336 63.7945 45.9498 64.4162 40.174 65.3151C35.2791 66.142 31.3531 66.5144 28.3962 66.4324C25.4392 66.3503 24.1469 65.4584 24.5192 63.7567C23.9567 63.3423 23.2279 63.6066 22.333 64.5496C21.5343 65.4164 20.7335 66.6757 19.9307 68.3274C19.1279 69.979 18.3531 71.7649 17.6064 73.6848C16.9457 75.6147 16.4723 77.4356 16.186 79.1473C15.8997 80.859 15.8737 82.2084 16.108 83.1954C16.5665 85.2554 17.4424 87.1023 18.7357 88.7359C20.1251 90.2935 22.2332 91.6728 25.0601 92.874C26.7718 93.1603 28.4355 93.4846 30.0511 93.847C31.6667 94.2093 33.5576 94.0801 35.7238 93.4595C40.903 93.1892 44.5377 92.6956 46.6278 91.9789C48.7179 91.2622 49.9982 90.7566 50.4686 90.4623C51.1974 90.1981 51.6678 89.9038 51.88 89.5794C52.1783 89.2651 52.5427 89.133 52.9731 89.183C52.6648 89.5834 52.7509 89.5934 53.2314 89.2131C53.7119 88.8327 54.4706 88.3101 55.5077 87.6455C57.4957 86.3061 59.4136 85.5693 61.2614 85.4352C63.1093 85.301 64.6158 85.4762 65.781 85.9607C66.9562 86.359 67.5618 86.7785 67.5978 87.2189C68.0143 88.1398 67.5959 89.4872 66.3426 91.261C65.0994 92.9487 63.2816 94.7005 60.8892 96.5163C58.5829 98.3422 55.9142 99.9078 52.8832 101.213C48.0403 103.093 42.8952 104.196 37.4477 104.523C31.9902 104.935 27.1473 104.939 22.919 104.535Z" fill="url(#paint7_linear_1_3592)"/>
</g>
</g>
<defs>
<filter id="filter0_i_1_3592" x="4.45117" y="6.01074" width="215.549" height="102.824" filterUnits="userSpaceOnUse" color-interpolation-filters="sRGB">
<feFlood flood-opacity="0" result="BackgroundImageFix"/>
<feBlend mode="normal" in="SourceGraphic" in2="BackgroundImageFix" result="shape"/>
<feColorMatrix in="SourceAlpha" type="matrix" values="0 0 0 0 0 0 0 0 0 0 0 0 0 0 0 0 0 0 127 0" result="hardAlpha"/>
<feOffset dy="4"/>
<feGaussianBlur stdDeviation="2"/>
<feComposite in2="hardAlpha" operator="arithmetic" k2="-1" k3="1"/>
<feColorMatrix type="matrix" values="0 0 0 0 0 0 0 0 0 0 0 0 0 0 0 0 0 0 0.25 0"/>
<feBlend mode="normal" in2="shape" result="effect1_innerShadow_1_3592"/>
</filter>
<filter id="filter1_d_1_3592" x="171" y="44.7659" width="53" height="63" filterUnits="userSpaceOnUse" color-interpolation-filters="sRGB">
<feFlood flood-opacity="0" result="BackgroundImageFix"/>
<feColorMatrix in="SourceAlpha" type="matrix" values="0 0 0 0 0 0 0 0 0 0 0 0 0 0 0 0 0 0 127 0" result="hardAlpha"/>
<feOffset dy="4"/>
<feGaussianBlur stdDeviation="2"/>
<feComposite in2="hardAlpha" operator="out"/>
<feColorMatrix type="matrix" values="0 0 0 0 0 0 0 0 0 0 0 0 0 0 0 0 0 0 0.25 0"/>
<feBlend mode="normal" in2="BackgroundImageFix" result="effect1_dropShadow_1_3592"/>
<feBlend mode="normal" in="SourceGraphic" in2="effect1_dropShadow_1_3592" result="shape"/>
</filter>
<filter id="filter2_d_1_3592" x="113.674" y="6.01074" width="57.5665" height="94.1987" filterUnits="userSpaceOnUse" color-interpolation-filters="sRGB">
<feFlood flood-opacity="0" result="BackgroundImageFix"/>
<feColorMatrix in="SourceAlpha" type="matrix" values="0 0 0 0 0 0 0 0 0 0 0 0 0 0 0 0 0 0 127 0" result="hardAlpha"/>
<feOffset dy="4"/>
<feGaussianBlur stdDeviation="2"/>
<feComposite in2="hardAlpha" operator="out"/>
<feColorMatrix type="matrix" values="0 0 0 0 0 0 0 0 0 0 0 0 0 0 0 0 0 0 0.25 0"/>
<feBlend mode="normal" in2="BackgroundImageFix" result="effect1_dropShadow_1_3592"/>
<feBlend mode="normal" in="SourceGraphic" in2="effect1_dropShadow_1_3592" result="shape"/>
</filter>
<filter id="filter3_d_1_3592" x="67.4636" y="43.954" width="47.3149" height="62.2175" filterUnits="userSpaceOnUse" color-interpolation-filters="sRGB">
<feFlood flood-opacity="0" result="BackgroundImageFix"/>
<feColorMatrix in="SourceAlpha" type="matrix" values="0 0 0 0 0 0 0 0 0 0 0 0 0 0 0 0 0 0 127 0" result="hardAlpha"/>
<feOffset dy="4"/>
<feGaussianBlur stdDeviation="2"/>
<feComposite in2="hardAlpha" operator="out"/>
<feColorMatrix type="matrix" values="0 0 0 0 0 0 0 0 0 0 0 0 0 0 0 0 0 0 0.25 0"/>
<feBlend mode="normal" in2="BackgroundImageFix" result="effect1_dropShadow_1_3592"/>
<feBlend mode="normal" in="SourceGraphic" in2="effect1_dropShadow_1_3592" result="shape"/>
</filter>
<filter id="filter4_d_1_3592" x="0.451172" y="17.6785" width="90.1094" height="95.1566" filterUnits="userSpaceOnUse" color-interpolation-filters="sRGB">
<feFlood flood-opacity="0" result="BackgroundImageFix"/>
<feColorMatrix in="SourceAlpha" type="matrix" values="0 0 0 0 0 0 0 0 0 0 0 0 0 0 0 0 0 0 127 0" result="hardAlpha"/>
<feOffset dy="4"/>
<feGaussianBlur stdDeviation="2"/>
<feComposite in2="hardAlpha" operator="out"/>
<feColorMatrix type="matrix" values="0 0 0 0 0 0 0 0 0 0 0 0 0 0 0 0 0 0 0.25 0"/>
<feBlend mode="normal" in2="BackgroundImageFix" result="effect1_dropShadow_1_3592"/>
<feBlend mode="normal" in="SourceGraphic" in2="effect1_dropShadow_1_3592" result="shape"/>
</filter>
<linearGradient id="paint0_linear_1_3592" x1="220" y1="72.2659" x2="175" y2="72.2659" gradientUnits="userSpaceOnUse">
<stop offset="1" stop-color="#6DBD67"/>
<stop offset="1" stop-color="#32572F"/>
</linearGradient>
<linearGradient id="paint1_linear_1_3592" x1="197.5" y1="44.7659" x2="197.5" y2="99.7659" gradientUnits="userSpaceOnUse">
<stop stop-opacity="0"/>
<stop offset="1" stop-color="#0066FF"/>
</linearGradient>
<linearGradient id="paint2_linear_1_3592" x1="160.308" y1="41.9813" x2="112.797" y2="53.1907" gradientUnits="userSpaceOnUse">
<stop offset="1" stop-color="#6DBD67"/>
<stop offset="1" stop-color="#32572F"/>
</linearGradient>
<linearGradient id="paint3_linear_1_3592" x1="126.648" y1="5.60466" x2="146.457" y2="89.5674" gradientUnits="userSpaceOnUse">
<stop stop-opacity="0"/>
<stop offset="1" stop-color="#0066FF"/>
</linearGradient>
<linearGradient id="paint4_linear_1_3592" x1="108.602" y1="66.297" x2="69.0621" y2="72.6815" gradientUnits="userSpaceOnUse">
<stop offset="1" stop-color="#6DBD67"/>
<stop offset="1" stop-color="#32572F"/>
</linearGradient>
<linearGradient id="paint5_linear_1_3592" x1="84.6494" y1="43.5865" x2="93.0146" y2="95.3921" gradientUnits="userSpaceOnUse">
<stop stop-opacity="0"/>
<stop offset="1" stop-color="#0066FF"/>
</linearGradient>
<linearGradient id="paint6_linear_1_3592" x1="75.6256" y1="51.8129" x2="1.00331" y2="43.1367" gradientUnits="userSpaceOnUse">
<stop offset="1" stop-color="#6DBD67"/>
<stop offset="1" stop-color="#32572F"/>
</linearGradient>
<linearGradient id="paint7_linear_1_3592" x1="43.6241" y1="1.80742" x2="33.0048" y2="93.1422" gradientUnits="userSpaceOnUse">
<stop stop-opacity="0"/>
<stop offset="1" stop-color="#0066FF"/>
</linearGradient>
</defs>
</svg>
